# xmcd
#
# Track frame offsets: 
#        150
#        13849
#        28907
#        40540
#        52418
#        65492
#        77647
#        88138
#        99874
#        112554
#        125258
#        137302
#        150228
#        162022
#        177333
#        191306
#        203283
#        215916
#        226393
#        240978
#
# Disc length: 3392 seconds
#
# Revision: 3
# Processed by: cddbd v1.5.2PL0 Copyright (c) Steve Scherf et al.
# Submitted via: ExactAudioCopy v0.95b4
#
DISCID=f10d3e14
DTITLE=Charles, Ray - Blues
DYEAR=2007
DGENRE=Blues
TTITLE0=A fool for you
TTITLE1=Drown in my own tears
TTITLE2=See see rider
TTITLE3=The sun's gonna shine again
TTITLE4=Ray's blues
TTITLE5=Honey honey
TTITLE6=A bit of soul
TTITLE7=What would i do without you
TTITLE8=Blues before sunrise
TTITLE9=You'll always miss the water
TTITLE10=Leave my woman alone
TTITLE11=Heartbreaker
TTITLE12=Roll with me baby
TTITLE13=Sinner's prayer
TTITLE14=Come back baby
TTITLE15=Nobody cares
TTITLE16=I wonder who
TTITLE17=Blackjack
TTITLE18=Funny but i still love you
TTITLE19=The midnight hour
EXTD=
EXTT0=
EXTT1=
EXTT2=
EXTT3=
EXTT4=
EXTT5=
EXTT6=
EXTT7=
EXTT8=
EXTT9=
EXTT10=
EXTT11=
EXTT12=
EXTT13=
EXTT14=
EXTT15=
EXTT16=
EXTT17=
EXTT18=
EXTT19=
PLAYORDER=
